<?xml version="1.0" encoding="UTF-8"?>
<svg xmlns="http://www.w3.org/2000/svg" xmlns:xlink="http://www.w3.org/1999/xlink" width="375pt" height="374.999991pt" viewBox="0 0 375 374.999991" version="1.2">
<defs>
<clipPath id="clip1">
  <path d="M 128.183594 112.5 L 246.683594 112.5 L 246.683594 262.5 L 128.183594 262.5 Z M 128.183594 112.5 "/>
</clipPath>
<clipPath id="clip2">
  <path d="M 153 112.5 L 222 112.5 L 222 142 L 153 142 Z M 153 112.5 "/>
</clipPath>
<clipPath id="clip3">
  <path d="M 153 233 L 222 233 L 222 262.5 L 153 262.5 Z M 153 233 "/>
</clipPath>
</defs>
<g id="surface1">
<path style=" stroke:none;fill-rule:nonzero;fill:rgb(32.939148%,32.939148%,32.939148%);fill-opacity:1;" d="M 277.597656 291.035156 L 97.8125 291.035156 C 90.410156 291.035156 84.375 285 84.375 277.597656 L 84.375 97.8125 C 84.375 90.410156 90.410156 84.375 97.8125 84.375 L 277.597656 84.375 C 285 84.375 291.035156 90.410156 291.035156 97.8125 L 291.035156 277.597656 C 291.035156 285 285 291.035156 277.597656 291.035156 Z M 277.597656 291.035156 "/>
<path style=" stroke:none;fill-rule:nonzero;fill:rgb(94.119263%,33.329773%,27.059937%);fill-opacity:1;" d="M 236.3125 259.34375 C 234.769531 259.34375 233.484375 258.234375 233.214844 256.765625 L 227.578125 256.765625 C 227.308594 258.234375 226.023438 259.34375 224.480469 259.34375 L 150.574219 259.34375 C 149.03125 259.34375 147.746094 258.234375 147.476562 256.765625 L 141.839844 256.765625 C 141.570312 258.234375 140.285156 259.34375 138.742188 259.34375 L 134.683594 259.34375 C 132.941406 259.34375 131.53125 257.929688 131.53125 256.191406 L 131.53125 118.8125 C 131.53125 117.070312 132.941406 115.65625 134.683594 115.65625 L 138.613281 115.65625 C 140.15625 115.65625 141.441406 116.765625 141.710938 118.234375 L 147.347656 118.234375 C 147.617188 116.765625 148.902344 115.65625 150.445312 115.65625 L 224.351562 115.65625 C 225.894531 115.65625 227.179688 116.765625 227.449219 118.234375 L 233.085938 118.234375 C 233.355469 116.765625 234.640625 115.65625 236.183594 115.65625 L 240.242188 115.65625 C 241.984375 115.65625 243.394531 117.070312 243.394531 118.8125 L 243.394531 256.191406 C 243.394531 257.929688 241.984375 259.34375 240.242188 259.34375 Z M 233.160156 244.277344 L 233.160156 238.742188 L 227.632812 238.742188 L 227.632812 244.277344 Z M 147.421875 244.277344 L 147.421875 238.742188 L 141.894531 238.742188 L 141.894531 244.277344 Z M 233.160156 226.253906 L 233.160156 220.71875 L 227.632812 220.71875 L 227.632812 226.253906 Z M 147.421875 226.253906 L 147.421875 220.71875 L 141.894531 220.71875 L 141.894531 226.253906 Z M 233.160156 208.226562 L 233.160156 202.691406 L 227.632812 202.691406 L 227.632812 208.226562 Z M 147.421875 208.226562 L 147.421875 202.691406 L 141.894531 202.691406 L 141.894531 208.226562 Z M 233.160156 190.203125 L 233.160156 184.667969 L 227.632812 184.667969 L 227.632812 190.203125 Z M 147.421875 190.203125 L 147.421875 184.667969 L 141.894531 184.667969 L 141.894531 190.203125 Z M 233.03125 172.308594 L 233.03125 166.773438 L 227.503906 166.773438 L 227.503906 172.308594 Z M 147.292969 172.308594 L 147.292969 166.773438 L 141.765625 166.773438 L 141.765625 172.308594 Z M 233.03125 154.28125 L 233.03125 148.746094 L 227.503906 148.746094 L 227.503906 154.28125 Z M 147.292969 154.28125 L 147.292969 148.746094 L 141.765625 148.746094 L 141.765625 154.28125 Z M 233.03125 136.257812 L 233.03125 130.722656 L 227.503906 130.722656 L 227.503906 136.257812 Z M 147.292969 136.257812 L 147.292969 130.722656 L 141.765625 130.722656 L 141.765625 136.257812 Z M 147.292969 136.257812 "/>
<g clip-path="url(#clip1)" clip-rule="nonzero">
<path style=" stroke:none;fill-rule:nonzero;fill:rgb(49.798584%,0%,0%);fill-opacity:1;" d="M 240.242188 118.8125 L 240.242188 256.191406 L 236.3125 256.191406 L 236.3125 255.597656 C 236.3125 254.503906 235.425781 253.613281 234.328125 253.613281 L 226.46875 253.613281 C 225.371094 253.613281 224.480469 254.503906 224.480469 255.597656 L 224.480469 256.191406 L 150.574219 256.191406 L 150.574219 255.597656 C 150.574219 254.503906 149.6875 253.613281 148.589844 253.613281 L 140.726562 253.613281 C 139.632812 253.613281 138.742188 254.503906 138.742188 255.597656 L 138.742188 256.191406 L 134.683594 256.191406 L 134.683594 118.8125 L 138.613281 118.8125 L 138.613281 119.398438 C 138.613281 120.496094 139.503906 121.386719 140.597656 121.386719 L 148.460938 121.386719 C 149.554688 121.386719 150.445312 120.496094 150.445312 119.398438 L 150.445312 118.8125 L 224.351562 118.8125 L 224.351562 119.398438 C 224.351562 120.496094 225.238281 121.386719 226.335938 121.386719 L 234.195312 121.386719 C 235.292969 121.386719 236.179688 120.496094 236.179688 119.398438 L 236.179688 118.8125 L 240.242188 118.8125 M 226.335938 139.414062 L 234.195312 139.414062 C 235.292969 139.414062 236.183594 138.523438 236.183594 137.425781 L 236.183594 129.554688 C 236.183594 128.457031 235.292969 127.570312 234.195312 127.570312 L 226.335938 127.570312 C 225.238281 127.570312 224.351562 128.457031 224.351562 129.554688 L 224.351562 137.425781 C 224.351562 138.523438 225.238281 139.414062 226.335938 139.414062 M 140.597656 139.414062 L 148.460938 139.414062 C 149.554688 139.414062 150.445312 138.523438 150.445312 137.425781 L 150.445312 129.554688 C 150.445312 128.457031 149.554688 127.570312 148.460938 127.570312 L 140.597656 127.570312 C 139.503906 127.570312 138.613281 128.457031 138.613281 129.554688 L 138.613281 137.425781 C 138.613281 138.523438 139.503906 139.414062 140.597656 139.414062 M 226.335938 157.4375 L 234.195312 157.4375 C 235.292969 157.4375 236.183594 156.546875 236.183594 155.449219 L 236.183594 147.582031 C 236.183594 146.484375 235.292969 145.59375 234.195312 145.59375 L 226.335938 145.59375 C 225.238281 145.59375 224.351562 146.484375 224.351562 147.582031 L 224.351562 155.449219 C 224.351562 156.546875 225.238281 157.4375 226.335938 157.4375 M 140.597656 157.4375 L 148.460938 157.4375 C 149.554688 157.4375 150.445312 156.546875 150.445312 155.449219 L 150.445312 147.582031 C 150.445312 146.484375 149.554688 145.59375 148.460938 145.59375 L 140.597656 145.59375 C 139.503906 145.59375 138.613281 146.484375 138.613281 147.582031 L 138.613281 155.449219 C 138.613281 156.546875 139.503906 157.4375 140.597656 157.4375 M 226.335938 175.460938 L 234.195312 175.460938 C 235.292969 175.460938 236.183594 174.570312 236.183594 173.476562 L 236.183594 165.605469 C 236.183594 164.507812 235.292969 163.617188 234.195312 163.617188 L 226.335938 163.617188 C 225.238281 163.617188 224.351562 164.507812 224.351562 165.605469 L 224.351562 173.476562 C 224.351562 174.570312 225.238281 175.460938 226.335938 175.460938 M 140.597656 175.460938 L 148.460938 175.460938 C 149.554688 175.460938 150.445312 174.570312 150.445312 173.476562 L 150.445312 165.605469 C 150.445312 164.507812 149.554688 163.617188 148.460938 163.617188 L 140.597656 163.617188 C 139.503906 163.617188 138.613281 164.507812 138.613281 165.605469 L 138.613281 173.476562 C 138.613281 174.570312 139.503906 175.460938 140.597656 175.460938 M 226.46875 193.355469 L 234.328125 193.355469 C 235.425781 193.355469 236.3125 192.464844 236.3125 191.371094 L 236.3125 183.5 C 236.3125 182.402344 235.425781 181.511719 234.328125 181.511719 L 226.46875 181.511719 C 225.371094 181.511719 224.480469 182.402344 224.480469 183.5 L 224.480469 191.371094 C 224.480469 192.464844 225.371094 193.355469 226.46875 193.355469 M 140.726562 193.355469 L 148.589844 193.355469 C 149.6875 193.355469 150.574219 192.464844 150.574219 191.371094 L 150.574219 183.5 C 150.574219 182.402344 149.6875 181.511719 148.589844 181.511719 L 140.726562 181.511719 C 139.632812 181.511719 138.742188 182.402344 138.742188 183.5 L 138.742188 191.371094 C 138.742188 192.464844 139.632812 193.355469 140.726562 193.355469 M 226.46875 211.378906 L 234.328125 211.378906 C 235.425781 211.378906 236.3125 210.492188 236.3125 209.394531 L 236.3125 201.523438 C 236.3125 200.429688 235.425781 199.539062 234.328125 199.539062 L 226.46875 199.539062 C 225.371094 199.539062 224.480469 200.429688 224.480469 201.523438 L 224.480469 209.394531 C 224.480469 210.492188 225.371094 211.378906 226.46875 211.378906 M 140.726562 211.378906 L 148.589844 211.378906 C 149.6875 211.378906 150.574219 210.492188 150.574219 209.394531 L 150.574219 201.523438 C 150.574219 200.429688 149.6875 199.539062 148.589844 199.539062 L 140.726562 199.539062 C 139.632812 199.539062 138.742188 200.429688 138.742188 201.523438 L 138.742188 209.394531 C 138.742188 210.492188 139.632812 211.378906 140.726562 211.378906 M 226.46875 229.40625 L 234.328125 229.40625 C 235.425781 229.40625 236.3125 228.515625 236.3125 227.421875 L 236.3125 219.550781 C 236.3125 218.453125 235.425781 217.5625 234.328125 217.5625 L 226.46875 217.5625 C 225.371094 217.5625 224.480469 218.453125 224.480469 219.550781 L 224.480469 227.421875 C 224.480469 228.515625 225.371094 229.40625 226.46875 229.40625 M 140.726562 229.40625 L 148.589844 229.40625 C 149.6875 229.40625 150.574219 228.515625 150.574219 227.421875 L 150.574219 219.550781 C 150.574219 218.453125 149.6875 217.5625 148.589844 217.5625 L 140.726562 217.5625 C 139.632812 217.5625 138.742188 218.453125 138.742188 219.550781 L 138.742188 227.421875 C 138.742188 228.515625 139.632812 229.40625 140.726562 229.40625 M 226.46875 247.429688 L 234.328125 247.429688 C 235.425781 247.429688 236.3125 246.542969 236.3125 245.445312 L 236.3125 237.574219 C 236.3125 236.476562 235.425781 235.589844 234.328125 235.589844 L 226.46875 235.589844 C 225.371094 235.589844 224.480469 236.476562 224.480469 237.574219 L 224.480469 245.445312 C 224.480469 246.542969 225.371094 247.429688 226.46875 247.429688 M 140.726562 247.429688 L 148.589844 247.429688 C 149.6875 247.429688 150.574219 246.542969 150.574219 245.445312 L 150.574219 237.574219 C 150.574219 236.476562 149.6875 235.589844 148.589844 235.589844 L 140.726562 235.589844 C 139.632812 235.589844 138.742188 236.476562 138.742188 237.574219 L 138.742188 245.445312 C 138.742188 246.542969 139.632812 247.429688 140.726562 247.429688 M 240.242188 112.503906 L 236.183594 112.503906 C 234.097656 112.503906 232.246094 113.515625 231.101562 115.078125 L 229.433594 115.078125 C 228.289062 113.515625 226.4375 112.503906 224.355469 112.503906 L 150.445312 112.503906 C 148.359375 112.503906 146.511719 113.515625 145.363281 115.078125 L 143.695312 115.078125 C 142.546875 113.515625 140.699219 112.503906 138.613281 112.503906 L 134.683594 112.503906 C 131.203125 112.503906 128.382812 115.328125 128.382812 118.8125 L 128.382812 256.191406 C 128.382812 259.671875 131.203125 262.496094 134.683594 262.496094 L 138.746094 262.496094 C 140.828125 262.496094 142.679688 261.484375 143.824219 259.921875 L 145.492188 259.921875 C 146.640625 261.484375 148.488281 262.496094 150.574219 262.496094 L 224.480469 262.496094 C 226.566406 262.496094 228.414062 261.484375 229.5625 259.921875 L 231.230469 259.921875 C 232.375 261.484375 234.226562 262.496094 236.308594 262.496094 L 240.242188 262.496094 C 243.722656 262.496094 246.542969 259.671875 246.542969 256.191406 L 246.542969 118.8125 C 246.546875 115.328125 243.722656 112.503906 240.242188 112.503906 Z M 240.242188 112.503906 "/>
</g>
<path style=" stroke:none;fill-rule:nonzero;fill:rgb(71.759033%,10.978699%,10.978699%);fill-opacity:1;" d="M 236.3125 247.207031 C 236.3125 246.890625 236.230469 246.59375 236.097656 246.324219 C 235.773438 246.980469 235.105469 247.429688 234.328125 247.429688 L 226.464844 247.429688 C 225.6875 247.429688 225.019531 246.980469 224.695312 246.324219 C 224.5625 246.59375 224.480469 246.890625 224.480469 247.207031 L 224.480469 247.796875 L 150.574219 247.796875 L 150.574219 247.207031 C 150.574219 246.890625 150.492188 246.59375 150.359375 246.324219 C 150.035156 246.980469 149.367188 247.429688 148.589844 247.429688 L 140.726562 247.429688 C 139.949219 247.429688 139.28125 246.980469 138.957031 246.324219 C 138.824219 246.59375 138.742188 246.890625 138.742188 247.207031 L 138.742188 247.796875 L 134.679688 247.796875 L 134.679688 256.191406 L 138.742188 256.191406 L 138.742188 255.597656 C 138.742188 254.503906 139.628906 253.613281 140.726562 253.613281 L 148.589844 253.613281 C 149.683594 253.613281 150.574219 254.503906 150.574219 255.597656 L 150.574219 256.191406 L 224.480469 256.191406 L 224.480469 255.597656 C 224.480469 254.503906 225.371094 253.613281 226.464844 253.613281 L 234.324219 253.613281 C 235.421875 253.613281 236.308594 254.503906 236.308594 255.597656 L 236.308594 256.191406 L 240.242188 256.191406 L 240.242188 247.796875 L 236.308594 247.796875 L 236.308594 247.207031 Z M 236.3125 247.207031 "/>
<path style=" stroke:none;fill-rule:nonzero;fill:rgb(32.939148%,32.939148%,32.939148%);fill-opacity:1;" d="M 163.828125 226.640625 C 159.785156 226.640625 156.496094 223.347656 156.496094 219.300781 L 156.496094 155.699219 C 156.496094 151.652344 159.785156 148.359375 163.828125 148.359375 L 211.097656 148.359375 C 215.140625 148.359375 218.429688 151.652344 218.429688 155.699219 L 218.429688 219.300781 C 218.429688 223.347656 215.140625 226.640625 211.097656 226.640625 Z M 163.828125 226.640625 "/>
<path style=" stroke:none;fill-rule:nonzero;fill:rgb(49.798584%,0%,0%);fill-opacity:1;" d="M 211.097656 151.515625 C 213.40625 151.515625 215.277344 153.390625 215.277344 155.699219 L 215.277344 219.300781 C 215.277344 221.613281 213.40625 223.484375 211.097656 223.484375 L 163.828125 223.484375 C 161.519531 223.484375 159.648438 221.613281 159.648438 219.300781 L 159.648438 155.699219 C 159.648438 153.390625 161.519531 151.515625 163.828125 151.515625 L 211.097656 151.515625 M 211.097656 145.207031 L 163.828125 145.207031 C 158.046875 145.207031 153.347656 149.914062 153.347656 155.699219 L 153.347656 219.300781 C 153.347656 225.085938 158.046875 229.792969 163.828125 229.792969 L 211.097656 229.792969 C 216.878906 229.792969 221.578125 225.085938 221.578125 219.300781 L 221.578125 155.699219 C 221.578125 149.914062 216.878906 145.207031 211.097656 145.207031 Z M 211.097656 145.207031 "/>
<path style=" stroke:none;fill-rule:nonzero;fill:rgb(32.939148%,32.939148%,32.939148%);fill-opacity:1;" d="M 163.828125 138.75 C 159.785156 138.75 156.496094 135.457031 156.496094 131.410156 L 156.496094 118.808594 C 156.496094 117.070312 157.90625 115.65625 159.648438 115.65625 L 215.277344 115.65625 C 217.019531 115.65625 218.429688 117.070312 218.429688 118.808594 L 218.429688 131.410156 C 218.429688 135.457031 215.140625 138.75 211.097656 138.75 Z M 163.828125 138.75 "/>
<g clip-path="url(#clip2)" clip-rule="nonzero">
<path style=" stroke:none;fill-rule:nonzero;fill:rgb(49.798584%,0%,0%);fill-opacity:1;" d="M 215.277344 118.8125 L 215.277344 131.410156 C 215.277344 133.722656 213.40625 135.59375 211.097656 135.59375 L 163.828125 135.59375 C 161.519531 135.59375 159.648438 133.722656 159.648438 131.410156 L 159.648438 118.8125 L 215.277344 118.8125 M 215.277344 112.503906 L 159.648438 112.503906 C 156.167969 112.503906 153.347656 115.328125 153.347656 118.8125 L 153.347656 131.410156 C 153.347656 137.195312 158.046875 141.902344 163.828125 141.902344 L 211.097656 141.902344 C 216.878906 141.902344 221.578125 137.195312 221.578125 131.410156 L 221.578125 118.8125 C 221.578125 115.328125 218.757812 112.503906 215.277344 112.503906 Z M 215.277344 112.503906 "/>
</g>
<path style=" stroke:none;fill-rule:nonzero;fill:rgb(32.939148%,32.939148%,32.939148%);fill-opacity:1;" d="M 159.648438 259.34375 C 157.90625 259.34375 156.496094 257.929688 156.496094 256.191406 L 156.496094 243.589844 C 156.496094 239.542969 159.785156 236.25 163.828125 236.25 L 211.097656 236.25 C 215.140625 236.25 218.429688 239.542969 218.429688 243.589844 L 218.429688 256.191406 C 218.429688 257.929688 217.019531 259.34375 215.277344 259.34375 Z M 159.648438 259.34375 "/>
<g clip-path="url(#clip3)" clip-rule="nonzero">
<path style=" stroke:none;fill-rule:nonzero;fill:rgb(49.798584%,0%,0%);fill-opacity:1;" d="M 211.097656 239.40625 C 213.40625 239.40625 215.277344 241.277344 215.277344 243.589844 L 215.277344 256.191406 L 159.648438 256.191406 L 159.648438 243.589844 C 159.648438 241.277344 161.519531 239.40625 163.828125 239.40625 L 211.097656 239.40625 M 211.097656 233.097656 L 163.828125 233.097656 C 158.046875 233.097656 153.347656 237.804688 153.347656 243.589844 L 153.347656 256.191406 C 153.347656 259.671875 156.167969 262.496094 159.648438 262.496094 L 215.277344 262.496094 C 218.757812 262.496094 221.578125 259.671875 221.578125 256.191406 L 221.578125 243.589844 C 221.578125 237.804688 216.878906 233.097656 211.097656 233.097656 Z M 211.097656 233.097656 "/>
</g>
</g>
</svg>
